<svg id="圖層_1" data-name="圖層 1" xmlns="http://www.w3.org/2000/svg" viewBox="0 0 323 94.17"><defs><style>.cls-1{fill:#64696f;}.cls-2{fill:#fff;}.cls-3{fill:#ffdead;}.cls-4{fill:#56c4c2;}</style></defs><title>foot-logo</title><path class="cls-1" d="M20,87.59H0V86H5.5q-.29-.65-.74-1.49H2.63V80.21H17.44v4.26h-2.1L14.61,86H20Zm-.53-11H11.08v1.1H18.5v1.5H1.58v-1.5H9v-1.1H.51V75.06H9V73.89h2.07v1.17h8.42ZM18,93.93h-2.1V93H4.12v1H2V88.6H18Zm-2.1-2.53V90.19H4.12v1.21ZM15.39,83V81.73H4.7V83ZM13,84.47H7.11A12.39,12.39,0,0,1,7.68,86h4.58Z"/><path class="cls-1" d="M30.22,86.16a36.44,36.44,0,0,1-3.3,7.77L25.14,92.7a41.35,41.35,0,0,0,3.25-7.55Zm.19-3.63-1.34,1.63a21,21,0,0,0-3.77-3l1.25-1.66A19.71,19.71,0,0,1,30.41,82.53Zm.66-5.48-1.49,1.52a18.38,18.38,0,0,0-4-3.36l1.54-1.52A20.94,20.94,0,0,1,31.07,77.05ZM45.33,89.1h-6.1v4.83H37.15V89.1H30.61v-2h6.54V84.56H32v-2h5.13V80.21H31.4V78.3H45v1.91H39.24v2.37h5.2v2h-5.2v2.55h6.1ZM36.73,77l-1.87,1a16.63,16.63,0,0,0-2.37-3.38l1.86-1.06A17,17,0,0,1,36.73,77Zm6.74-2.53A16.26,16.26,0,0,1,41.12,78l-1.89-1a15.63,15.63,0,0,0,2.35-3.42Z"/><path class="cls-1" d="M55.52,86.16a36.44,36.44,0,0,1-3.3,7.77L50.44,92.7a41.35,41.35,0,0,0,3.25-7.55Zm.19-3.63-1.34,1.63a21,21,0,0,0-3.77-3l1.25-1.66A19.71,19.71,0,0,1,55.71,82.53Zm.66-5.48-1.49,1.52a18.38,18.38,0,0,0-4-3.36l1.54-1.52A20.94,20.94,0,0,1,56.37,77.05ZM70.63,89.1h-6.1v4.83H62.45V89.1H55.91v-2h6.54V84.56H57.32v-2h5.13V80.21H56.7V78.3H70.33v1.91H64.54v2.37h5.2v2h-5.2v2.55h6.1ZM62,77l-1.87,1a16.63,16.63,0,0,0-2.37-3.38l1.86-1.06A17,17,0,0,1,62,77Zm6.74-2.53A16.26,16.26,0,0,1,66.42,78l-1.89-1a15.63,15.63,0,0,0,2.35-3.42Z"/><path class="cls-1" d="M88.16,89H85.38a14.59,14.59,0,0,1-1.45,1.89q1.84.74,3.18,1.4L86,93.73q-2.3-1.07-3.56-1.54a19.79,19.79,0,0,1-5.75,2l-.81-1.73a16.1,16.1,0,0,0,4.21-1.05,23.27,23.27,0,0,0-3-.9q1.09-1.17,1.33-1.49H76V87.41h3.64l.85-1.31H77V82.3h4V81.22H77v-2.5h-1V77.24h1V74.77h4.08v-.89H83v.89h4v2.47h1.13v1.47H87v2.5H83V82.3H87v3.8h-4.2L82,87.41h2.09a5.68,5.68,0,0,0,.37-.79l1.77.42a.73.73,0,0,1-.12.37h2.05ZM81.06,77.24v-1H78.82v1Zm0,2.57v-1.1H78.82v1.1Zm0,4.81v-.9H78.89v.9ZM83.14,89H80.88q0,.08-.54.69l1.77.54A8.41,8.41,0,0,0,83.14,89Zm2-11.72v-1H83v1Zm0,2.55V78.72H83v1.08Zm.08,4.83v-.9H83v.9Zm11.08,7.79-1,1.71a13.76,13.76,0,0,1-3.38-3.38,16.71,16.71,0,0,1-3.16,3.33L87.4,92.56a14.76,14.76,0,0,0,3.34-3.64A16.87,16.87,0,0,1,89,84.32l1.76-1a18.59,18.59,0,0,0,1,3.2,29.66,29.66,0,0,0,1-7.53H91a23.49,23.49,0,0,1-2.14,4.88l-1.33-1.65a27.21,27.21,0,0,0,2.66-8.54l2,.28q-.15,1-.62,3.12H96V79H94.69a29.32,29.32,0,0,1-1.74,9.87A13.08,13.08,0,0,0,96.28,92.42Z"/><path class="cls-1" d="M107.69,74.25a28.33,28.33,0,0,1-1.18,2.94l-.8,1.69V94h-2.06V82.39A21,21,0,0,1,102,84.44l-.92-2.17a27.12,27.12,0,0,0,4.57-8.54Zm13.63,19.09H106.47v-2h3.8a106.58,106.58,0,0,0-1.7-10.65l1.43-1h-3V77.65h6a26.67,26.67,0,0,0-1.27-3.45l2-.48a34.16,34.16,0,0,1,1.34,3.93h5.62V79.7h-3l1.65,1q-.6,5.24-1.7,10.6h3.65ZM117.4,79.7h-7q1,4.19,1.89,11.61h3.22A101,101,0,0,0,117.4,79.7Z"/><path class="cls-1" d="M136,75.43a21.14,21.14,0,0,1-3.4.82v3h2.9v1.93h-2.9v.64a24.46,24.46,0,0,1,3.08,3.91l-1.43,1.52a20.63,20.63,0,0,0-1.65-2.8v9.51h-2V84.83a17.55,17.55,0,0,1-3.11,4.58l-1.17-1.82a21.13,21.13,0,0,0,4.17-6.44h-3.94V79.22h4.05V76.57q-1.46.22-3.07.33L126.69,75A37,37,0,0,0,135,73.7ZM146.6,88.14l-2.13.33V94h-2V88.72l-6.92.93-.18-2,7.1-1V73.93h2V86.4l2.07-.26Zm-5.18-4.09L140,85.59a22.17,22.17,0,0,0-4.3-4l1.34-1.49A25.46,25.46,0,0,1,141.43,84.05Zm.33-5.57L140.37,80a27.29,27.29,0,0,0-4.07-3.77l1.43-1.45A29.45,29.45,0,0,1,141.75,78.48Z"/><path class="cls-1" d="M159.3,84.14q-1.3.61-2.39,1v6.67a2.21,2.21,0,0,1-.48,1.53,2.12,2.12,0,0,1-1.62.56q-1.13,0-2,0l-.64-2q1.21,0,2.09,0a.58.58,0,0,0,.41-.2.61.61,0,0,0,.2-.44V85.91q-1.27.45-2.63.8l-.55-1.89q2.16-.65,3.18-1.05V79.51H152v-2h2.92V73.83h2v3.73H159v2h-2.11V83a14.48,14.48,0,0,0,2-.83Zm12.81,8.3-1.18,1.73A22.76,22.76,0,0,1,165.56,91a24.44,24.44,0,0,1-5.91,3.18l-1.13-1.84a21.85,21.85,0,0,0,5.59-2.72,17.35,17.35,0,0,1-3.27-5.93h-.79V81.75h4.56v-3h-4.87V76.83h4.87V73.91h2.07v2.92h4.83v1.93h-4.83v3h4.26v1.93a17.18,17.18,0,0,1-3.84,6A18.15,18.15,0,0,0,172.12,92.44Zm-3.44-8.76H163a13.22,13.22,0,0,0,2.64,4.6A14.2,14.2,0,0,0,168.68,83.68Z"/><path class="cls-1" d="M184.74,92q0,1.94-2.26,1.94a10.08,10.08,0,0,1-1-.06l-.75-2q.42,0,1.76,0c.22,0,.33-.1.33-.31V86q-1.06,1.33-1.89,2.21l-.69-1.16A18.53,18.53,0,0,1,178.74,94l-1.66-1.29a19.1,19.1,0,0,0,1.2-7.61V74.25h6.46Zm-2-11.11V76.24h-2.55v2.61L181.4,78A19.27,19.27,0,0,1,182.78,80.92Zm0,1.89V81.49l-1.36,1a12.74,12.74,0,0,0-1.19-3V86A24.13,24.13,0,0,0,182.78,82.8Zm14.63,9.48-1,1.75a14.93,14.93,0,0,1-5.33-2.56A19.39,19.39,0,0,1,186.14,94L185,92.28a15.19,15.19,0,0,0,4.46-2.11,13.9,13.9,0,0,1-2.81-4.86h-1V83.38h10.21v1.93a16.59,16.59,0,0,1-3.21,4.76A15.58,15.58,0,0,0,197.42,92.28Zm-.24-10.16h-3.27a1.38,1.38,0,0,1-1.09-.48,1.64,1.64,0,0,1-.42-1.11V76.37h-3.2v1A6.75,6.75,0,0,1,187,82.78l-1.68-1.31a4.83,4.83,0,0,0,1.86-4.13V74.41h7.24v5.45a.33.33,0,0,0,.37.37h2.41Zm-3.64,3.19h-4.71a9.44,9.44,0,0,0,2.31,3.53A14.59,14.59,0,0,0,193.54,85.31Z"/><path class="cls-1" d="M209.16,74.16Q208.79,75.21,208,77l-.8,1.75V94h-2.09V82.28a14.83,14.83,0,0,1-1.71,2.11l-1.1-2.16a24.65,24.65,0,0,0,4.74-8.51Zm13.55,6.6-1.34,1.86-.46-.35q0,1.27-.24,5.41a37.36,37.36,0,0,1-.47,4.85,2,2,0,0,1-.83,1.12,3.33,3.33,0,0,1-1.84.42l-2.29,0-.53-2q1.13.09,1.74.09a3,3,0,0,0,1.69-.27q.28-.27.45-3.56t.18-4.43h-3.47q-.36,7.1-6,10.27l-1.38-1.64q5-2.5,5.33-8.62h-3.71V82.1a3.38,3.38,0,0,1-.62.46l-1.22-1.73a15.82,15.82,0,0,0,4.41-6.92l2.1.53a23.2,23.2,0,0,1-4.41,7.47H220.5a14.37,14.37,0,0,1-3.56-5.79h-1.89v-2h3.45A10.47,10.47,0,0,0,222.72,80.76Z"/><path class="cls-1" d="M247.78,78H236.61a15.06,15.06,0,0,1-1.2,2H246.2V92.31a1.61,1.61,0,0,1-.41,1.18,1.74,1.74,0,0,1-1.24.44l-1.64,0q-1.29,0-2.12,0l-.89-2q1.46.07,3.74.07.48,0,.48-.53V89.3H233.87a11.52,11.52,0,0,1-2.39,4.64l-2-1.1Q232,90.12,232,87.74V84.05a17,17,0,0,1-3,2.55L227.52,85a21.87,21.87,0,0,0,6.65-7h-6.4V76h7.48a13.12,13.12,0,0,0,1.06-2.28l2.12.35a15.79,15.79,0,0,1-.81,1.93h10.16Zm-3.66,5.75V81.93h-10v1.82Zm0,3.66v-1.8h-10v1.8Z"/><path class="cls-1" d="M258.75,80.87a9.32,9.32,0,0,1,1.92,5.25q0,3.22-3.17,3.22l-.73,0-.57-2.05a5.82,5.82,0,0,0,1,.08,1.91,1.91,0,0,0,1.1-.22,1.09,1.09,0,0,0,.29-.9,8.32,8.32,0,0,0-2-5.13q.65-1.61,1.58-4.78h-2.53V94h-2V74.25h6.64V76.3Q259.55,78.82,258.75,80.87Zm13.21,3h-8.23v7.39A24.63,24.63,0,0,0,267.11,90l.11,2.14A33.48,33.48,0,0,1,262,94l-.74-1.72a1,1,0,0,0,.44-.9v-17H272Zm-2.05-5.69V76.16h-6.18v2.06Zm0,3.86V80h-6.18v2.06Zm3.34,10.34-1.17,1.69a13.94,13.94,0,0,1-6.41-8.75l1.85-.57a13,13,0,0,0,1,2.61,16.61,16.61,0,0,0,2.92-2.76L272.92,86a18.65,18.65,0,0,1-3.34,3.25A13.21,13.21,0,0,0,273.24,92.42Z"/><path class="cls-1" d="M286.88,74.46a23.24,23.24,0,0,1-7.38,10.21l-1.31-1.75a19.31,19.31,0,0,0,6.65-9.15Zm10.25,18.37L295.3,94.1A20.75,20.75,0,0,0,294,91.52q-5.31,1.25-13,2.28l-.6-1.75q3-2.13,6.92-11.7l2.09.62a50,50,0,0,1-5.75,10.45,72.7,72.7,0,0,0,9.3-1.63,40.67,40.67,0,0,0-2.39-3.48l1.7-1.1A41.86,41.86,0,0,1,297.13,92.83Zm1.5-9.82-1.22,1.81A17.87,17.87,0,0,1,291,76h-1.86v-2h3.34A16.19,16.19,0,0,0,298.64,83Z"/><path class="cls-1" d="M323,91.27A2.35,2.35,0,0,1,320.37,94q-2.32,0-3.4,0l-.6-2.07q2.56.06,3.56.06t1-.58V76.18H303.71V74.29H323ZM319,80H304.2V78.16H319Zm-1.47,9.89h-12V82.16h12ZM315.47,88v-4h-7.89v4Z"/><path class="cls-2" d="M108.2,14.39,109.15,9a7.73,7.73,0,0,0-1.62-6.34A7.62,7.62,0,0,0,101.65,0H85.75l-.57,3.21c-.13-.18-.26-.37-.4-.54A7.63,7.63,0,0,0,78.91,0H63L60.45,14.53A9.4,9.4,0,0,0,52.94,22L50.62,35.1h6.2L54.39,48.92A7.73,7.73,0,0,0,56,55.26a7.62,7.62,0,0,0,5.88,2.67H77.78l.57-3.21c.13.18.26.37.4.54a7.62,7.62,0,0,0,5.88,2.67h15.89l4-23a9.4,9.4,0,0,0,7.51-7.45l2.32-13.14Z"/><path class="cls-2" d="M273.5,6.81l-.23-.26L273,6.3a7.43,7.43,0,0,0-1.59-1.19l-.06,0A4.17,4.17,0,0,0,267.32,0h-6.2a4.16,4.16,0,0,0-3.58,2.07h-3.16A4.17,4.17,0,0,0,250.78,0h-6.2a4.17,4.17,0,0,0-3,1.33,4.47,4.47,0,0,0-.54.73H221.29l-.12-.2A4.15,4.15,0,0,0,217.7,0h-6.2a4.16,4.16,0,0,0-3.58,2.07h-3.16A4.16,4.16,0,0,0,201.16,0H195a4.19,4.19,0,0,0-3.59,2.07H157.21a4.08,4.08,0,0,0-.41-.58A4.16,4.16,0,0,0,153.62,0h-6.2a4.17,4.17,0,0,0-3.6,2.07H127.41a4.16,4.16,0,0,0-4.1,3.44,8,8,0,0,0,.18,3.62,7.76,7.76,0,0,0,.62,1.51,4.36,4.36,0,0,0,.27.47l-.59,3.37L120.88,31l0,.27a4.15,4.15,0,0,0-2.62,3.16,8,8,0,0,0-.09,2.14c0,.14,0,.28,0,.42a7.94,7.94,0,0,0,.4,1.57c.06.17.13.34.21.5s.16.33.24.49.18.31.28.47h0l-.11.6-1.46,8.27a7.75,7.75,0,0,0,1.62,6.34,7.64,7.64,0,0,0,5.88,2.68H158.3a9.37,9.37,0,0,0,8.34-5.56,5.71,5.71,0,0,0,.88,1.46,5.78,5.78,0,0,0,4.44,2h7.77l.6-3.38,2.32-13.16h10.16l-1.69,9.59a7.71,7.71,0,0,0,1.62,6.34,7.62,7.62,0,0,0,5.88,2.68h5.56l.6-3.39,2.69-15.22h10.15l-1.71,9.74a5.72,5.72,0,0,0,5.68,6.8h7.77l.6-3.44,2.32-13.12h10.16l-1.69,9.59a7.71,7.71,0,0,0,1.62,6.34,7.62,7.62,0,0,0,5.88,2.68h5.56l.59-3.37,2.69-15.24h10a4.16,4.16,0,0,0,4.1-3.44,8.54,8.54,0,0,0,.12-1.43q0-.23,0-.47c0-.07,0-.14,0-.21s0-.32-.06-.49,0-.33-.09-.49,0-.22-.08-.34l-.06-.21c0-.17-.11-.34-.17-.5s-.13-.34-.21-.5c0,0,0,0,0,0s-.15-.3-.23-.45-.18-.32-.28-.47h0l.6-3.37.6-3.44,1.21-6.9,0-.27a4.16,4.16,0,0,0,2.63-3.17A7.71,7.71,0,0,0,273.5,6.81Z"/><path class="cls-3" d="M73.81,33.09H61.4L58.48,49.64a3.37,3.37,0,0,0,3.41,4.13h12.4l2.92-16.55A3.37,3.37,0,0,0,73.81,33.09Z"/><path class="cls-4" d="M103.24,18.55,105.05,8.3a3.37,3.37,0,0,0-3.41-4.13H89.24L86.71,18.55H61.9A5.15,5.15,0,0,0,57,22.69l-1.46,8.25H80.39a3.37,3.37,0,0,1,3.41,4.13L81.22,49.64a3.37,3.37,0,0,0,3.41,4.13H97l4-22.83h2.07A5.15,5.15,0,0,0,108,26.81l1.46-8.25Z"/><path class="cls-1" d="M168.76,6.23h-15.5l.36-2.07h-6.2L147,6.23H127.41a3.37,3.37,0,0,0,3.41,4.13h15.5L146,12.43H128.38a3.37,3.37,0,0,0,3.41,4.13H169a3.37,3.37,0,0,0-3.41-4.13H152.16l.36-2.07h19.64A3.37,3.37,0,0,0,168.76,6.23Z"/><path class="cls-1" d="M121.82,49.64a3.37,3.37,0,0,0,3.41,4.13H158.3a5.15,5.15,0,0,0,4.86-4.13l1.46-8.27H123.28Zm4.86-4.13h33.08l-.36,2.07A2.57,2.57,0,0,1,157,49.64H128a1.69,1.69,0,0,1-1.7-2.07Z"/><path class="cls-1" d="M163.65,35.17H159.5L161.28,31h1a5.15,5.15,0,0,0,4.86-4.13l1.46-8.27H127.29l-1.46,8.27A3.37,3.37,0,0,0,129.24,31h1l.32,4.13h-8.29a3.37,3.37,0,0,0,3.41,4.13h41.34A3.37,3.37,0,0,0,163.65,35.17ZM130.33,24.83l.36-2.07h33.08l-.36,2.07A2.57,2.57,0,0,1,161,26.9H132A1.69,1.69,0,0,1,130.33,24.83Zm6.14,6.2h18.61l-1.78,4.13H136.8Z"/><path class="cls-1" d="M182.34,6.23h-4.28l-1.12,6.35a1.57,1.57,0,0,0,1.58,1.92h4.28l1.12-6.35A1.57,1.57,0,0,0,182.34,6.23Z"/><path class="cls-1" d="M180.15,18.63h-4.28L174.75,25a1.57,1.57,0,0,0,1.58,1.92h4.28l1.12-6.35A1.57,1.57,0,0,0,180.15,18.63Z"/><path class="cls-1" d="M178,30.94H173.7l-3.32,18.85A1.57,1.57,0,0,0,172,51.71h4.28l3.32-18.85A1.57,1.57,0,0,0,178,30.94Z"/><path class="cls-1" d="M214.17,12.43h7.24A3.37,3.37,0,0,0,218,8.3h-2.07l1.76-4.13h-6.2L209.74,8.3h-8.27l-.3-4.13H195l.3,4.13h-6.2a3.37,3.37,0,0,0,3.41,4.13h9.3l-1.09,6.2H189.31a3.37,3.37,0,0,0,3.41,4.13h7.24L198.49,31H185.05a3.37,3.37,0,0,0,3.41,4.13h9.3l-2.55,14.47a3.37,3.37,0,0,0,3.41,4.13h2.07L204,35.17H217.4A3.37,3.37,0,0,0,214,31h-9.3l1.46-8.27h11.37a3.37,3.37,0,0,0-3.41-4.13h-7.24l1.09-6.2Z"/><path class="cls-1" d="M263.61,31h-9.3l1.46-8.27h11.37a3.37,3.37,0,0,0-3.41-4.13h-7.24l1.09-6.2H271a3.37,3.37,0,0,0-3.41-4.13h-2.07l1.76-4.13h-6.2L259.35,8.3h-8.27l-.3-4.13h-6.2l.3,4.13h-6.2a3.37,3.37,0,0,0,3.41,4.13h9.3l-1.09,6.2H238.92a3.37,3.37,0,0,0,3.41,4.13h7.24L248.1,31H234.67a3.37,3.37,0,0,0,3.41,4.13h9.3l-2.55,14.47a3.37,3.37,0,0,0,3.41,4.13h2.07l3.28-18.61H267A3.37,3.37,0,0,0,263.61,31Z"/><path class="cls-1" d="M232,6.23h-4.28l-1.12,6.35a1.57,1.57,0,0,0,1.58,1.92h4.28l1.12-6.35A1.57,1.57,0,0,0,232,6.23Z"/><path class="cls-1" d="M229.77,18.63h-4.28L224.37,25a1.57,1.57,0,0,0,1.58,1.92h4.28l1.12-6.35A1.57,1.57,0,0,0,229.77,18.63Z"/><path class="cls-1" d="M227.6,30.94h-4.28L220,49.79a1.57,1.57,0,0,0,1.58,1.92h4.28l3.32-18.85A1.57,1.57,0,0,0,227.6,30.94Z"/><path class="cls-3" d="M66.5,4.16h12.4A3.37,3.37,0,0,1,82.31,8.3l-1.44,8.19H64.33Z"/></svg>