<svg id="圖層_1" data-name="圖層 1" xmlns="http://www.w3.org/2000/svg" viewBox="0 0 189.89 48.98"><defs><style>.cls-1{fill:#fff;}.cls-2{fill:#fbc3b4;}.cls-3{fill:#56c4c2;}</style></defs><title>logo</title><path class="cls-1" d="M48.67,12.17l.8-4.54A6.53,6.53,0,0,0,48.1,2.26a6.45,6.45,0,0,0-5-2.26H29.7l-.48,2.72c-.11-.16-.22-.31-.34-.45a6.45,6.45,0,0,0-5-2.26H10.48L8.31,12.28A7.94,7.94,0,0,0,2,18.57L0,29.67H5.24L3.18,41.35a6.54,6.54,0,0,0,1.37,5.36,6.45,6.45,0,0,0,5,2.26H23l.48-2.72c.11.16.22.31.34.45a6.45,6.45,0,0,0,5,2.26H42.18l3.42-19.41A8,8,0,0,0,52,23.27l2-11.1Z"/><path class="cls-1" d="M188.41,5.76l-.19-.22L188,5.32a6.28,6.28,0,0,0-1.35-1l0,0A3.52,3.52,0,0,0,183.18,0h-5.25a3.51,3.51,0,0,0-3,1.75h-2.67a3.52,3.52,0,0,0-3-1.75H164a3.53,3.53,0,0,0-2.58,1.13,3.78,3.78,0,0,0-.46.62H144.28l-.11-.17A3.51,3.51,0,0,0,141.24,0H136a3.52,3.52,0,0,0-3,1.75H130.3a3.51,3.51,0,0,0-3-1.75H122a3.54,3.54,0,0,0-3,1.75H90.11a3.45,3.45,0,0,0-.35-.49A3.52,3.52,0,0,0,87.07,0H81.83a3.53,3.53,0,0,0-3,1.75H64.91a3.52,3.52,0,0,0-3.46,2.91,6.78,6.78,0,0,0,.15,3.06A6.56,6.56,0,0,0,62.13,9a3.68,3.68,0,0,0,.23.39l-.5,2.85-2.47,14,0,.23a3.51,3.51,0,0,0-2.21,2.67,6.77,6.77,0,0,0-.07,1.81c0,.12,0,.24,0,.36a6.71,6.71,0,0,0,.34,1.33c.05.15.11.28.17.43s.13.28.21.42l.24.39h0l-.09.51-1.24,7a6.55,6.55,0,0,0,1.37,5.36,6.46,6.46,0,0,0,5,2.26H91a7.92,7.92,0,0,0,7.05-4.7,4.83,4.83,0,0,0,.74,1.23,4.88,4.88,0,0,0,3.75,1.73h6.57l.51-2.86,2-11.13h8.59l-1.43,8.11a6.52,6.52,0,0,0,1.37,5.36,6.44,6.44,0,0,0,5,2.26h4.7l.51-2.87,2.27-12.86h8.58l-1.45,8.23a4.84,4.84,0,0,0,4.8,5.75h6.57l.51-2.91,2-11.09h8.59l-1.43,8.11a6.52,6.52,0,0,0,1.37,5.36A6.44,6.44,0,0,0,167,49h4.7l.5-2.85,2.27-12.88h8.41a3.52,3.52,0,0,0,3.46-2.9,7.22,7.22,0,0,0,.11-1.2q0-.2,0-.39c0-.06,0-.12,0-.18s0-.27,0-.41,0-.28-.07-.42,0-.19-.07-.29l0-.18c0-.14-.09-.28-.14-.42s-.11-.28-.17-.43,0,0,0,0l-.19-.38c-.07-.14-.15-.27-.24-.4h0l.51-2.85.51-2.9,1-5.83,0-.23a3.51,3.51,0,0,0,2.22-2.68A6.52,6.52,0,0,0,188.41,5.76Z"/><path class="cls-2" d="M19.6,28H9.11L6.65,42a2.85,2.85,0,0,0,2.88,3.5H20l2.47-14A2.85,2.85,0,0,0,19.6,28Z"/><path class="cls-3" d="M44.48,15.69,46,7a2.85,2.85,0,0,0-2.88-3.5H32.65L30.5,15.69h-21a4.35,4.35,0,0,0-4.11,3.5l-1.23,7h21A2.85,2.85,0,0,1,28,29.65L25.87,42a2.85,2.85,0,0,0,2.88,3.5H39.23l3.4-19.3h1.75a4.35,4.35,0,0,0,4.11-3.5l1.23-7Z"/><path class="cls-3" d="M99.86,5.27H86.76l.31-1.75H81.82l-.31,1.75H64.91a2.85,2.85,0,0,0,2.88,3.5H80.9l-.31,1.75H65.74A2.85,2.85,0,0,0,68.62,14h31.46a2.85,2.85,0,0,0-2.88-3.5H85.83l.31-1.75h16.6A2.85,2.85,0,0,0,99.86,5.27Z"/><path class="cls-3" d="M60.19,42a2.85,2.85,0,0,0,2.88,3.5H91A4.35,4.35,0,0,0,95.14,42l1.23-7h-35Zm4.11-3.5h28L92,40.22A2.18,2.18,0,0,1,89.9,42H65.43A1.43,1.43,0,0,1,64,40.22Z"/><path class="cls-3" d="M95.55,29.73H92l1.51-3.5h.87a4.35,4.35,0,0,0,4.11-3.5l1.23-7h-35l-1.23,7a2.85,2.85,0,0,0,2.88,3.5h.87l.27,3.5h-7a2.85,2.85,0,0,0,2.88,3.5h35A2.85,2.85,0,0,0,95.55,29.73ZM67.38,21l.31-1.75h28L95.34,21a2.18,2.18,0,0,1-2.06,1.75H68.82A1.43,1.43,0,0,1,67.38,21Zm5.19,5.24H88.3l-1.51,3.5H72.85Z"/><path class="cls-3" d="M111.35,5.27h-3.62l-.95,5.37a1.32,1.32,0,0,0,1.34,1.62h3.62l.95-5.37A1.32,1.32,0,0,0,111.35,5.27Z"/><path class="cls-3" d="M109.5,15.75h-3.62l-.95,5.37a1.32,1.32,0,0,0,1.34,1.62h3.62l.95-5.37A1.32,1.32,0,0,0,109.5,15.75Z"/><path class="cls-3" d="M107.67,26.16H104l-2.81,15.93a1.32,1.32,0,0,0,1.34,1.62h3.62L109,27.78A1.32,1.32,0,0,0,107.67,26.16Z"/><path class="cls-3" d="M138.26,10.51h6.12A2.85,2.85,0,0,0,141.5,7h-1.75l1.49-3.5H136L134.51,7h-7l-.26-3.5H122l.26,3.5H117a2.85,2.85,0,0,0,2.88,3.5h7.86l-.92,5.24h-9.61a2.85,2.85,0,0,0,2.88,3.5h6.12l-1.23,7H113.64a2.85,2.85,0,0,0,2.88,3.5h7.86L122.23,42a2.85,2.85,0,0,0,2.88,3.5h1.75l2.77-15.73H141a2.85,2.85,0,0,0-2.88-3.5h-7.86l1.23-7h9.61a2.85,2.85,0,0,0-2.88-3.5h-6.12l.92-5.24Z"/><path class="cls-3" d="M180,26.24h-7.86l1.23-7H183a2.85,2.85,0,0,0-2.88-3.5H174l.92-5.24h11.36A2.85,2.85,0,0,0,183.44,7h-1.75l1.49-3.5h-5.24L176.45,7h-7l-.26-3.5H164l.26,3.5H159a2.85,2.85,0,0,0,2.88,3.5h7.86l-.92,5.24h-9.61a2.85,2.85,0,0,0,2.88,3.5h6.12l-1.23,7H155.58a2.85,2.85,0,0,0,2.88,3.5h7.86L164.17,42a2.85,2.85,0,0,0,2.88,3.5h1.75l2.77-15.73h11.36A2.85,2.85,0,0,0,180,26.24Z"/><path class="cls-3" d="M153.29,5.27h-3.62l-.95,5.37a1.32,1.32,0,0,0,1.34,1.62h3.62l.95-5.37A1.32,1.32,0,0,0,153.29,5.27Z"/><path class="cls-3" d="M151.44,15.75h-3.62l-.95,5.37a1.32,1.32,0,0,0,1.34,1.62h3.62l.95-5.37A1.32,1.32,0,0,0,151.44,15.75Z"/><path class="cls-3" d="M149.61,26.16H146l-2.81,15.93a1.32,1.32,0,0,0,1.34,1.62h3.62l2.81-15.93A1.32,1.32,0,0,0,149.61,26.16Z"/><path class="cls-2" d="M13.43,3.52H23.91A2.85,2.85,0,0,1,26.79,7l-1.22,6.92h-14Z"/></svg>