<svg id="圖層_1" data-name="圖層 1" xmlns="http://www.w3.org/2000/svg" viewBox="0 0 37.1 37.1"><defs><style>.cls-1{fill:#2dc100;}.cls-2{fill:#fff;}</style></defs><title>nav-icon-4</title><circle class="cls-1" cx="18.55" cy="18.55" r="18.55"/><path class="cls-2" d="M30.67,16.84C30.67,11.41,25.23,7,18.55,7S6.43,11.41,6.43,16.84c0,4.86,4.31,8.94,10.14,9.71.39.09.93.26,1.07.6a2.49,2.49,0,0,1,0,1.1l-.17,1c-.05.31-.24,1.2,1.05.65a39.14,39.14,0,0,0,9.53-7h0A8.75,8.75,0,0,0,30.67,16.84Zm-16.4,2.9A.24.24,0,0,1,14,20h-3.4a.23.23,0,0,1-.16-.07h0a.23.23,0,0,1-.07-.16h0V14.45a.24.24,0,0,1,.24-.24h.85a.24.24,0,0,1,.24.24v4.2H14a.24.24,0,0,1,.24.24Zm2.05,0a.24.24,0,0,1-.24.24h-.85a.24.24,0,0,1-.24-.24V14.45a.24.24,0,0,1,.24-.24h.85a.24.24,0,0,1,.24.24Zm5.85,0a.24.24,0,0,1-.24.24H21l-.06-.06L18.47,16.6v3.14a.24.24,0,0,1-.24.24h-.85a.24.24,0,0,1-.24-.24V14.45a.24.24,0,0,1,.24-.24h1l0,0,2.42,3.27V14.45a.24.24,0,0,1,.24-.24h.85a.24.24,0,0,1,.24.24Zm4.7-4.43a.24.24,0,0,1-.24.24H24.32v.89h2.31a.24.24,0,0,1,.24.24v.85a.24.24,0,0,1-.24.24H24.32v.89h2.31a.24.24,0,0,1,.24.24v.85a.24.24,0,0,1-.24.24h-3.4a.23.23,0,0,1-.16-.07h0a.23.23,0,0,1-.07-.16h0V14.45h0a.24.24,0,0,1,.07-.16h0a.23.23,0,0,1,.16-.07h3.4a.24.24,0,0,1,.24.24Z"/></svg>