<svg id="圖層_1" data-name="圖層 1" xmlns="http://www.w3.org/2000/svg" xmlns:xlink="http://www.w3.org/1999/xlink" viewBox="0 0 37.1 37.1"><defs><style>.cls-1{fill:url(#linear-gradient);}.cls-2{opacity:0.22;fill:url(#linear-gradient-2);}.cls-3{fill:#fff;}</style><linearGradient id="linear-gradient" x1="7.13" y1="33.17" x2="29.97" y2="3.93" gradientUnits="userSpaceOnUse"><stop offset="0.07" stop-color="#ffd77a"/><stop offset="0.11" stop-color="#fccc77" stop-opacity="0.98"/><stop offset="0.18" stop-color="#f5af6f" stop-opacity="0.93"/><stop offset="0.28" stop-color="#ea8162" stop-opacity="0.86"/><stop offset="0.34" stop-color="#e25f58" stop-opacity="0.8"/><stop offset="0.68" stop-color="#cb3593" stop-opacity="0.8"/><stop offset="1" stop-color="#6568ae" stop-opacity="0.8"/></linearGradient><linearGradient id="linear-gradient-2" x1="9.27" y1="2.48" x2="27.83" y2="34.62" gradientUnits="userSpaceOnUse"><stop offset="0" stop-color="#f2f2f2"/><stop offset="0.79" stop-color="#f2f2f2" stop-opacity="0.05"/></linearGradient></defs><title>nav-icon-3</title><rect class="cls-1" width="37.1" height="37.1" rx="18.55" ry="18.55"/><rect class="cls-2" width="37.1" height="37.1" rx="18.55" ry="18.55"/><path class="cls-3" d="M22.53,8.12h-8a6.43,6.43,0,0,0-6.4,6.47v8.05a6.43,6.43,0,0,0,6.4,6.47h8a6.43,6.43,0,0,0,6.4-6.47V14.59A6.43,6.43,0,0,0,22.53,8.12Zm4.4,13.75a5.2,5.2,0,0,1-5.17,5.23H15.33a5.2,5.2,0,0,1-5.17-5.23V15.36a5.2,5.2,0,0,1,5.17-5.23h6.44a5.2,5.2,0,0,1,5.17,5.23Z"/><path class="cls-3" d="M19.69,13.19a5.53,5.53,0,1,0,4.54,4.59A5.5,5.5,0,0,0,19.69,13.19Zm0,8.68A3.33,3.33,0,1,1,22,19.48,3.32,3.32,0,0,1,19.65,21.88Z"/><ellipse class="cls-3" cx="23.92" cy="13.04" rx="1.39" ry="1.41"/></svg>