<svg id="圖層_1" data-name="圖層 1" xmlns="http://www.w3.org/2000/svg" viewBox="0 0 37.1 37.1"><defs><style>.cls-1{fill:#ed4a85;}.cls-2{fill:#fff;}</style></defs><title>nav-icon-1</title><circle class="cls-1" cx="18.55" cy="18.55" r="18.55"/><path class="cls-2" d="M27.95,13.45a1.16,1.16,0,0,0-1.39,1l-1.33,6.38-10.07-.1L12.73,10a1.26,1.26,0,0,0-.56-.81L10,7.89a1.11,1.11,0,0,0-1.57.5,1.34,1.34,0,0,0,.46,1.72l1.76,1.06L13.08,22l-1.33,1.15a.75.75,0,0,0-.25.57v1.81a.7.7,0,0,0,.65.73l1.86,0a1.51,1.51,0,0,0-.42,1.06,1.33,1.33,0,1,0,2.64,0,1.52,1.52,0,0,0-.39-1l8.72.13a1.53,1.53,0,0,0-.29.9,1.33,1.33,0,1,0,2.64,0,1.53,1.53,0,0,0-.27-.86l1.14,0h0a.73.73,0,0,0,0-1.45l-15-.23v-.75l1.1-1a1,1,0,0,0,.32.06l11.89.12h0a1.19,1.19,0,0,0,1.13-1L28.82,15A1.28,1.28,0,0,0,27.95,13.45Z"/><rect class="cls-2" x="15.63" y="13.39" width="12.89" height="2.16" rx="0.73" ry="0.73"/></svg>