<svg id="圖層_1" data-name="圖層 1" xmlns="http://www.w3.org/2000/svg" viewBox="0 0 76.05 73.08"><defs><style>.cls-1{fill:#69c;}</style></defs><title>section-2-icon-7</title><path class="cls-1" d="M39.93,11.44c4-7.94,14.45-9.68,21.85-5.5,8.5,4.8,12.43,16.42,9.87,25.57-2.28,8.17-8.28,15.34-14.17,21.22-3.22,3.22-6.72,6.16-10.23,9.05C45,63.61,40.49,69,37.72,68.74c-1.32-.1-4.37-3.48-5.44-4.34-1.35-1.09-2.71-2.19-4-3.3A126.5,126.5,0,0,1,18,51.68c-5.77-6-11.74-13.25-13.66-21.57-2-8.77.94-19.87,9.3-24.4,7.9-4.27,18-1.35,23.08,5.73,1.38,1.93,4.61.07,3.22-1.88C31.75-1.86,14.07-3.58,5.22,8.22-6.59,24,3.75,42.18,15.36,54.31A125.26,125.26,0,0,0,25.6,63.72c3.3,2.75,7.29,7.27,11.22,9,2.36,1.06,3.66-.67,5.45-2.13,4.39-3.57,8.83-7.07,13.08-10.81,12.48-11,26-27.33,18.59-44.83C70.66,7.26,64.31,1.13,55.73.14c-7.63-.88-15.48,2.44-19,9.42C35.64,11.7,38.85,13.58,39.93,11.44Z"/><path class="cls-1" d="M38.33,50.64l2.39-7.2L49.4,17.2l.12-.35c.18-.56.46-1.17,1.16-1a1.73,1.73,0,0,1,1,1c.6,2,1.09,3.94,1.62,5.91l3.08,11.39c.08.29.18.58.28.92l11.19-.28,2.35-.08c.68,0,1.2.21,1.25.89s-.42,1.05-1.16,1.07l-11,.3-2.84.05c-1.33,0-1.47-.07-1.81-1.32q-1.9-7-3.79-14.09c-.09-.33-.18-.65-.35-1.26-.21.55-.35.86-.45,1.18Q44.83,37.44,39.58,53.29c-.21.64-.25,1.53-1.28,1.5s-1-.86-1.22-1.48Q33,41.56,29,29.8c-.08-.23-.17-.46-.32-.85-.41.78-.75,1.43-1.09,2.08-1.05,2.06-2.12,4.1-3.14,6.17a1.54,1.54,0,0,1-1.6.94c-5.06,0-10.11,0-15.17,0-.74,0-1.44,0-1.45-1s.75-1,1.51-1c4.7,0,9.39,0,14.09,0a1.18,1.18,0,0,0,1.25-.75q2.3-4.61,4.7-9.17c.2-.39.81-1,1-.88a2,2,0,0,1,1.14,1c2.7,7.77,5.36,15.55,8,23.33C38.09,50,38.18,50.25,38.33,50.64Z"/><path class="cls-1" d="M38.35,55h-.06c-1,0-1.2-.79-1.36-1.35,0-.1-.06-.2-.09-.3q-3.06-8.92-6.11-17.84l-1.94-5.68-.12-.33-.07.14-.76,1.45L27,32.69c-.78,1.51-1.59,3.08-2.35,4.63a1.78,1.78,0,0,1-1.8,1.08h0c-4.77,0-9.61,0-14.3,0H7.71c-.62,0-1.69,0-1.7-1.2a1.18,1.18,0,0,1,.3-.88,2.06,2.06,0,0,1,1.46-.36h4.48q4.8,0,9.61,0h0a.93.93,0,0,0,1-.61c1.62-3.24,3.16-6.24,4.7-9.17.19-.35.87-1.15,1.33-1a2.19,2.19,0,0,1,1.3,1.2c2.23,6.4,4.46,12.91,6.61,19.22l1.41,4.12.07.19.66-2,1.51-4.56,8.8-26.59c.13-.39.45-1.41,1.46-1.15a2,2,0,0,1,1.18,1.2c.43,1.41.81,2.85,1.17,4.24l.45,1.68,3.07,11.39c.05.2.12.4.18.61l0,.12,1.57,0,9.43-.24,2.34-.08c.91,0,1.45.37,1.5,1.12a1.18,1.18,0,0,1-.28.91,1.51,1.51,0,0,1-1.13.42l-11,.3-2,0h-.81c-1.44,0-1.69-.16-2.05-1.5l-2.67-9.93-1.12-4.16-.15-.55c-.07.18-.13.33-.18.48l-3,9.21q-3.73,11.26-7.46,22.51c0,.1-.06.21-.09.32C39.57,54.26,39.36,55,38.35,55Zm-9.6-26.7.33.87c.07.2.13.35.19.51L31.2,35.4q3.05,8.92,6.11,17.84c0,.1.07.21.1.32.17.6.31,1,.89,1s.77-.34.94-1c0-.12.06-.24.1-.35Q43.08,42,46.8,30.7l3-9.21c.07-.22.15-.43.26-.7l.46-1.19L51,21l.18.64,1.12,4.16,2.67,9.93c.3,1.13.35,1.15,1.56,1.14h.81l2,0,11-.3A1.07,1.07,0,0,0,71,36.2a.71.71,0,0,0,.15-.55c0-.17,0-.72-1-.66l-2.35.08-9.44.24-1.94,0-.15-.48c-.07-.22-.13-.42-.19-.63L53.06,22.87c-.15-.56-.3-1.12-.45-1.68-.36-1.39-.74-2.83-1.17-4.22a1.49,1.49,0,0,0-.83-.86c-.34-.1-.6,0-.86.82L41,43.51l-1.51,4.56-1.1,3.32-.39-1c-.07-.19-.13-.34-.18-.48l-1.41-4.12c-2.16-6.3-4.38-12.82-6.61-19.21a1.72,1.72,0,0,0-1-.89,2.25,2.25,0,0,0-.74.76c-1.54,2.92-3.08,5.92-4.69,9.16a1.42,1.42,0,0,1-1.46.89h0q-4.8,0-9.6,0H7.77c-.44,0-.89,0-1.11.22a.71.71,0,0,0-.16.53c0,.61.36.71,1.19.71h.88c4.69,0,9.53,0,14.3,0h0a1.29,1.29,0,0,0,1.36-.8c.77-1.55,1.57-3.12,2.35-4.64l.79-1.54.76-1.45Z"/></svg>