<svg id="圖層_1" data-name="圖層 1" xmlns="http://www.w3.org/2000/svg" viewBox="0 0 72.75 76.55"><defs><style>.cls-1{fill:#69c;}</style></defs><title>section-2-icon-6</title><path class="cls-1" d="M61,67.57H49.56a1.17,1.17,0,0,1,0-2.34H59.8V28.35a1.17,1.17,0,0,1,2.34,0v38A1.17,1.17,0,0,1,61,67.57Z"/><path class="cls-1" d="M61,67.82H49.56a1.42,1.42,0,1,1,0-2.84h10V28.35a1.42,1.42,0,0,1,2.84,0v38A1.42,1.42,0,0,1,61,67.82ZM49.56,65.47a.92.92,0,1,0,0,1.84H61a.92.92,0,0,0,.92-.92v-38a.92.92,0,0,0-1.84,0V65.47Z"/><path class="cls-1" d="M21.94,67.57H11.78a1.17,1.17,0,0,1-1.17-1.17v-38a1.17,1.17,0,0,1,2.34,0V65.22h9a1.17,1.17,0,0,1,0,2.34Z"/><path class="cls-1" d="M21.94,67.82H11.78a1.42,1.42,0,0,1-1.42-1.42v-38a1.42,1.42,0,0,1,2.84,0V65h8.74a1.42,1.42,0,0,1,0,2.84ZM11.78,27.43a.92.92,0,0,0-.92.92v38a.92.92,0,0,0,.92.92H21.94a.92.92,0,0,0,0-1.84H12.7V28.35A.92.92,0,0,0,11.78,27.43Z"/><path class="cls-1" d="M71.32,29.53H61.24a1.17,1.17,0,0,1-.72-.24L36.37,10.68,12.23,29.28a1.17,1.17,0,0,1-.72.24H1.42a1.17,1.17,0,0,1-.72-2.1L35.66.49a1.17,1.17,0,0,1,1.43,0l11.16,8.6V6.41a1.17,1.17,0,0,1,1.17-1.17h7.72a1.17,1.17,0,0,1,1.17,1.17V16.84L72,27.43a1.17,1.17,0,0,1-.72,2.1Zm-9.69-2.34h6.25L56.42,18.35a1.17,1.17,0,0,1-.46-.93V7.58H50.59v3.89a1.17,1.17,0,0,1-1.89.93L36.37,2.9,4.86,27.18h6.25L35.66,8.27a1.17,1.17,0,0,1,1.43,0Z"/><path class="cls-1" d="M71.32,29.78H61.24a1.42,1.42,0,0,1-.87-.3L36.37,11l-24,18.49a1.43,1.43,0,0,1-.87.3H1.42a1.42,1.42,0,0,1-.87-2.55L35.51.3a1.42,1.42,0,0,1,1.74,0L48,8.58V6.41A1.42,1.42,0,0,1,49.42,5h7.72a1.42,1.42,0,0,1,1.42,1.42V16.72L72.19,27.23a1.42,1.42,0,0,1-.87,2.55Zm-35-19.42,24.3,18.72a.92.92,0,0,0,.56.19H71.32a.92.92,0,0,0,.56-1.65L58.06,17V6.41a.92.92,0,0,0-.92-.92H49.42a.92.92,0,0,0-.92.92V9.6L36.94.69a.92.92,0,0,0-1.12,0L.86,27.62a.92.92,0,0,0,.56,1.65H11.51a.93.93,0,0,0,.56-.19ZM68.62,27.43H61.55l-.07-.05L36.94,8.47a.92.92,0,0,0-1.12,0l-24.62,19H4.13L36.37,2.59l12.48,9.62a.92.92,0,0,0,1.49-.73V7.33h5.87V17.42a.91.91,0,0,0,.36.73Zm-6.9-.5h5.43L56.27,18.55a1.42,1.42,0,0,1-.55-1.13V7.83H50.84v3.64a1.42,1.42,0,0,1-2.29,1.13L36.37,3.22,5.6,26.93H11L35.51,8.07a1.42,1.42,0,0,1,1.74,0Z"/><path class="cls-1" d="M63.19,76.3H9.56a1.17,1.17,0,0,1-1.17-1.17V66.4a1.17,1.17,0,0,1,1.17-1.17H63.19a1.17,1.17,0,0,1,1.17,1.17v8.73A1.17,1.17,0,0,1,63.19,76.3ZM10.73,74H62V67.57H10.73Z"/><path class="cls-1" d="M63.19,76.55H9.56a1.42,1.42,0,0,1-1.42-1.42V66.4A1.42,1.42,0,0,1,9.56,65H63.19a1.42,1.42,0,0,1,1.42,1.42v8.73A1.42,1.42,0,0,1,63.19,76.55ZM9.56,65.47a.92.92,0,0,0-.92.92v8.73a.92.92,0,0,0,.92.92H63.19a.92.92,0,0,0,.92-.92V66.4a.92.92,0,0,0-.92-.92Zm52.71,8.73H10.48V67.32H62.27ZM11,73.71H61.77V67.82H11Z"/><path class="cls-1" d="M46.69,50.2H26.05a8.78,8.78,0,0,1,0-17.57,8.48,8.48,0,0,1,1.6.15,8.78,8.78,0,0,1,17.45,0,8.48,8.48,0,0,1,1.6-.15,8.78,8.78,0,1,1,0,17.57ZM26.05,35a6.44,6.44,0,0,0,0,12.88H46.69a6.44,6.44,0,1,0-2.34-12.42,1.17,1.17,0,0,1-1.6-1.17c0-.1,0-.2,0-.3a1.2,1.2,0,0,0,0-.16,6.44,6.44,0,0,0-12.88,0A1.12,1.12,0,0,0,30,34c0,.1,0,.19,0,.29a1.17,1.17,0,0,1-1.6,1.18A6.41,6.41,0,0,0,26.05,35Z"/><path class="cls-1" d="M46.7,50.45H26.05a9,9,0,1,1,0-18.07,8.63,8.63,0,0,1,1.38.11,9,9,0,0,1,17.88,0,8.63,8.63,0,0,1,1.38-.11,9,9,0,1,1,0,18.07ZM26.05,32.89a8.53,8.53,0,1,0,0,17.07H46.7a8.53,8.53,0,1,0,0-17.07,8.29,8.29,0,0,0-1.55.15l-.26.05,0-.27a8.53,8.53,0,0,0-17,0l0,.27L27.6,33A8.29,8.29,0,0,0,26.05,32.89ZM46.7,48.11H26.05a6.69,6.69,0,1,1,2.43-12.9.92.92,0,0,0,1.26-.93c0-.09,0-.19,0-.28a1.19,1.19,0,0,1,0-.19,6.69,6.69,0,0,1,13.38,0A1,1,0,0,1,43,34c0,.13,0,.23,0,.32a.92.92,0,0,0,.38.81.93.93,0,0,0,.88.12,6.68,6.68,0,1,1,2.43,12.9ZM26.05,35.23a6.19,6.19,0,1,0,0,12.38H46.7a6.19,6.19,0,1,0-2.25-11.94,1.42,1.42,0,0,1-1.94-1.42c0-.11,0-.21,0-.32a.94.94,0,0,0,0-.12,6.19,6.19,0,0,0-12.38,0,.59.59,0,0,0,0,.08c0,.14,0,.24,0,.35a1.42,1.42,0,0,1-1.94,1.43A6.16,6.16,0,0,0,26.05,35.23Z"/><path class="cls-1" d="M43,38.79A1.17,1.17,0,0,1,42,37a6.44,6.44,0,1,0-11.27-.21,1.17,1.17,0,0,1-2.07,1.1A8.78,8.78,0,1,1,44,38.2,1.17,1.17,0,0,1,43,38.79Z"/><path class="cls-1" d="M43,39a1.42,1.42,0,0,1-1.23-2.13,6.19,6.19,0,1,0-10.83-.2,1.42,1.42,0,0,1-.59,1.92,1.43,1.43,0,0,1-1.08.1,1.41,1.41,0,0,1-.84-.69,9,9,0,1,1,15.81.3A1.43,1.43,0,0,1,43,39ZM36.37,27.12a6.69,6.69,0,0,1,5.79,10,.92.92,0,0,0,.34,1.26,1,1,0,0,0,1.26-.34,8.53,8.53,0,1,0-14.94-.28.91.91,0,0,0,.54.45.92.92,0,0,0,.7-.07.92.92,0,0,0,.38-1.25,6.69,6.69,0,0,1,5.92-9.81Z"/><path class="cls-1" d="M26.07,59.36H22.55a1.17,1.17,0,1,1,0-2.34h3.52a1.17,1.17,0,0,1,0,2.34Z"/><path class="cls-1" d="M26.07,59.61H22.55a1.42,1.42,0,1,1,0-2.84h3.52a1.42,1.42,0,1,1,0,2.84Zm-3.52-2.34a.92.92,0,1,0,0,1.84h3.52a.92.92,0,1,0,0-1.84Z"/><path class="cls-1" d="M39.39,59.36H32.73a1.17,1.17,0,1,1,0-2.34h6.66a1.17,1.17,0,0,1,0,2.34Z"/><path class="cls-1" d="M39.39,59.61H32.73a1.42,1.42,0,0,1,0-2.84h6.66a1.42,1.42,0,1,1,0,2.84Zm-6.66-2.34a.92.92,0,0,0,0,1.84h6.66a.92.92,0,1,0,0-1.84Z"/><path class="cls-1" d="M49.56,59.36H46A1.17,1.17,0,1,1,46,57h3.52a1.17,1.17,0,1,1,0,2.34Z"/><path class="cls-1" d="M49.56,59.61H46a1.42,1.42,0,1,1,0-2.84h3.52a1.42,1.42,0,0,1,0,2.84ZM46,57.26a.92.92,0,1,0,0,1.84h3.52a.92.92,0,0,0,0-1.84Z"/><path class="cls-1" d="M22.55,59.36H11.78a1.17,1.17,0,1,1,0-2.34H22.55a1.17,1.17,0,0,1,0,2.34Z"/><path class="cls-1" d="M22.55,59.61H11.78a1.42,1.42,0,1,1,0-2.84H22.55a1.42,1.42,0,0,1,0,2.84ZM11.78,57.26a.92.92,0,1,0,0,1.84H22.55a.92.92,0,0,0,0-1.84Z"/></svg>