<svg id="圖層_1" data-name="圖層 1" xmlns="http://www.w3.org/2000/svg" viewBox="0 0 79.17 69"><defs><style>.cls-1{fill:#69c;}</style></defs><title>section-2-icon-5</title><path class="cls-1" d="M63.11,69H4.67A5,5,0,0,1,0,63.75V12.16A5,5,0,0,1,4.67,6.92H31.49a1.28,1.28,0,0,1,1.2,1.34,1.28,1.28,0,0,1-1.2,1.34H4.67a2.43,2.43,0,0,0-2.27,2.55V63.75a2.43,2.43,0,0,0,2.27,2.55H63.11a2.43,2.43,0,0,0,2.27-2.55V42.3a1.21,1.21,0,1,1,2.39,0V63.75A5,5,0,0,1,63.11,69Z"/><path class="cls-1" d="M61.53,60.66H6.25A1.28,1.28,0,0,1,5,59.31V16.6a1.28,1.28,0,0,1,1.2-1.34H31.73a1.35,1.35,0,0,1,0,2.69H7.44V58h52.9V42.3a1.21,1.21,0,1,1,2.39,0v17A1.28,1.28,0,0,1,61.53,60.66Z"/><path class="cls-1" d="M37,48.42a1.1,1.1,0,0,1-.43-.09,1.35,1.35,0,0,1-.76-1.25V5.66C35.77,2.54,38,0,40.82,0H74.13c2.78,0,5,2.54,5,5.66v26.7c0,3.12-2.26,5.66-5,5.66h-23a11.19,11.19,0,0,0-8.64,4.28L37.86,48A1.14,1.14,0,0,1,37,48.42ZM40.82,2.69a2.83,2.83,0,0,0-2.65,3V43.61l2.53-3.12a13.48,13.48,0,0,1,10.41-5.15h23a2.83,2.83,0,0,0,2.65-3V5.66a2.83,2.83,0,0,0-2.65-3Z"/><path class="cls-1" d="M31.09,26.46H15.91a1.35,1.35,0,0,1,0-2.69H31.09a1.35,1.35,0,0,1,0,2.69Z"/><path class="cls-1" d="M31.09,40.74H15.91a1.35,1.35,0,0,1,0-2.69H31.09a1.35,1.35,0,0,1,0,2.69Z"/><path class="cls-1" d="M51.38,53.22a1.28,1.28,0,0,1-1.2-1.34V42.39a1.21,1.21,0,1,1,2.39,0v9.48A1.28,1.28,0,0,1,51.38,53.22Z"/><path class="cls-1" d="M51.16,23.74l7.48-9.83a5.63,5.63,0,0,0,.79-1.36,3.53,3.53,0,0,0,.28-1.3v0a1.69,1.69,0,0,0-.57-1.36,2.45,2.45,0,0,0-1.62-.48,2.16,2.16,0,0,0-1.65.67,3.19,3.19,0,0,0-.76,1.9H50.89a8,8,0,0,1,1-3.51A5.73,5.73,0,0,1,54.16,6.2a6.93,6.93,0,0,1,3.33-.77A8.29,8.29,0,0,1,61,6.09,4.85,4.85,0,0,1,63.18,8a5.91,5.91,0,0,1,.76,3.07h0a8.77,8.77,0,0,1-.52,2.95A9.25,9.25,0,0,1,62,16.71L56.6,23.49h7.45v4H51.16Z"/></svg>