<svg id="圖層_1" data-name="圖層 1" xmlns="http://www.w3.org/2000/svg" viewBox="0 0 94.61 73.09"><defs><style>.cls-1{fill:#69c;}</style></defs><title>section-2-icon-2</title><path class="cls-1" d="M15.93,12.68,27,14h.2a1.56,1.56,0,0,0,.19-3.12L20.12,10l7.72-5.89a1.56,1.56,0,0,0-.74-2.79L17,0a1.56,1.56,0,0,0-.42,3.1L22.93,4,15.18,9.88a1.56,1.56,0,0,0,.76,2.8Z"/><path class="cls-1" d="M32.84,18.76a1.56,1.56,0,0,0,1.32,1.14l9.57,1.19h.2A1.56,1.56,0,0,0,44.11,18l-5.77-.72,6.29-4.8a1.56,1.56,0,0,0-.74-2.79L35.13,8.51a1.56,1.56,0,1,0-.42,3.1l5,.67-6.33,4.83A1.56,1.56,0,0,0,32.84,18.76Z"/><path class="cls-1" d="M94.61,31.78A30.92,30.92,0,0,0,77.27,3.89,1.56,1.56,0,0,0,75.17,6a27.69,27.69,0,0,1,2.9,12.38A28.13,28.13,0,0,1,65,42a15.62,15.62,0,0,0-4.84-.77,16.37,16.37,0,0,0-1.85.1,22.83,22.83,0,0,0-42.09-.1h-.28a15.91,15.91,0,1,0,0,31.82H74.79A10.58,10.58,0,0,0,83.1,55.95,31.22,31.22,0,0,0,94.61,31.78ZM74.79,70H15.92a12.78,12.78,0,1,1,0-25.56c.36,0,.74,0,1.17.06a1.58,1.58,0,0,0,1.62-1,19.71,19.71,0,0,1,37.11.2,1.56,1.56,0,0,0,1.79,1,12.73,12.73,0,0,1,2.54-.25,12.46,12.46,0,0,1,4.51.83,12.78,12.78,0,0,1,7.83,8.67,1.56,1.56,0,0,0,1.66,1.16c.21,0,.43,0,.65,0s.46,0,.68,0a7.49,7.49,0,0,1,6.78,7.44A7.47,7.47,0,0,1,74.79,70Zm6-16.18-.3-.19-.23-.15-.61-.34L79.53,53q-.38-.19-.77-.35l-.22-.08-.58-.2-.29-.08-.54-.14-.31-.07L76.25,52,76,52c-.28,0-.57-.06-.85-.07-.18-.5-.39-1-.61-1.47-.07-.15-.15-.29-.22-.44-.17-.33-.34-.65-.53-1l-.29-.46c-.2-.31-.41-.61-.64-.91l-.29-.38c-.32-.4-.66-.8-1-1.17l-.18-.17q-.47-.47-1-.89L70,44.69c-.27-.22-.55-.42-.84-.62l-.49-.32-.29-.19A31.3,31.3,0,0,0,81.2,18.37,30.8,30.8,0,0,0,79.76,9,27.78,27.78,0,0,1,91.49,31.78,28.09,28.09,0,0,1,80.8,53.78Z"/><path class="cls-1" d="M53,21.73l-1,5.74a1.56,1.56,0,0,0,2.27,1.65l5.16-2.71,5.16,2.71a1.56,1.56,0,0,0,2.27-1.65l-1-5.74,4.17-4.07A1.56,1.56,0,0,0,69.21,15l-5.77-.84L60.87,8.93a1.56,1.56,0,0,0-2.8,0l-2.58,5.22L49.72,15a1.56,1.56,0,0,0-.87,2.67Zm3.72-4.6a1.56,1.56,0,0,0,1.18-.86l1.54-3.12L61,16.28a1.56,1.56,0,0,0,1.18.86l3.44.5-2.49,2.43a1.57,1.57,0,0,0-.45,1.38l.59,3.43-3.08-1.62a1.56,1.56,0,0,0-1.46,0l-3.08,1.62.59-3.43a1.57,1.57,0,0,0-.45-1.38L53.3,17.64Z"/></svg>