<svg id="圖層_1" data-name="圖層 1" xmlns="http://www.w3.org/2000/svg" viewBox="0 0 107.08 68.62"><defs><style>.cls-1{fill:#69c;}</style></defs><title>section-2-icon-1</title><path class="cls-1" d="M26.89,33.08a1.79,1.79,0,0,1-.83-.21l-8.75-4.6-8.75,4.6A1.79,1.79,0,0,1,5.95,31l1.67-9.75L.54,14.34a1.79,1.79,0,0,1,1-3.05l9.79-1.42L15.69,1a1.79,1.79,0,0,1,3.21,0l4.38,8.87,9.79,1.42a1.79,1.79,0,0,1,1,3.05L27,21.24,28.65,31a1.79,1.79,0,0,1-1.76,2.09ZM17.3,24.46a1.79,1.79,0,0,1,.83.21L24.51,28l-1.22-7.1a1.79,1.79,0,0,1,.52-1.58l5.16-5-7.13-1a1.79,1.79,0,0,1-1.35-1L17.3,5.84l-3.19,6.46a1.79,1.79,0,0,1-1.35,1l-7.13,1,5.16,5a1.79,1.79,0,0,1,.52,1.58L10.09,28l6.37-3.35A1.79,1.79,0,0,1,17.3,24.46Z"/><path class="cls-1" d="M63.12,33.08a1.8,1.8,0,0,1-.83-.21l-8.75-4.6-8.75,4.6A1.79,1.79,0,0,1,42.19,31l1.67-9.75-7.08-6.9a1.79,1.79,0,0,1,1-3.05l9.79-1.42L51.93,1a1.79,1.79,0,0,1,3.21,0l4.38,8.87,9.79,1.42a1.79,1.79,0,0,1,1,3.05l-7.08,6.9L64.89,31a1.79,1.79,0,0,1-1.76,2.09Zm-9.59-8.62a1.79,1.79,0,0,1,.83.21L60.75,28l-1.22-7.1A1.79,1.79,0,0,1,60,19.34l5.16-5-7.13-1a1.79,1.79,0,0,1-1.35-1L53.54,5.84l-3.19,6.46a1.79,1.79,0,0,1-1.35,1l-7.13,1,5.16,5a1.79,1.79,0,0,1,.52,1.58L46.33,28l6.37-3.35A1.79,1.79,0,0,1,53.54,24.46Z"/><path class="cls-1" d="M45,68.62a1.79,1.79,0,0,1-.83-.21l-8.75-4.6-8.75,4.6a1.79,1.79,0,0,1-2.6-1.89l1.67-9.75-7.08-6.9a1.79,1.79,0,0,1,1-3.05l9.79-1.42,4.38-8.87a1.79,1.79,0,0,1,3.21,0L41.4,45.4l9.79,1.42a1.79,1.79,0,0,1,1,3.05l-7.08,6.9,1.67,9.75A1.79,1.79,0,0,1,45,68.62ZM35.42,60a1.79,1.79,0,0,1,.83.21l6.37,3.35-1.22-7.1a1.79,1.79,0,0,1,.52-1.58l5.16-5-7.13-1a1.79,1.79,0,0,1-1.35-1l-3.19-6.46-3.19,6.46a1.79,1.79,0,0,1-1.35,1l-7.13,1,5.16,5a1.79,1.79,0,0,1,.52,1.58l-1.22,7.1,6.37-3.35A1.79,1.79,0,0,1,35.42,60Z"/><path class="cls-1" d="M81.24,68.62a1.79,1.79,0,0,1-.83-.21l-8.75-4.6-8.75,4.6a1.79,1.79,0,0,1-2.6-1.89L62,56.78l-7.08-6.9a1.79,1.79,0,0,1,1-3.05l9.79-1.42,4.38-8.87a1.79,1.79,0,0,1,3.21,0l4.38,8.87,9.79,1.42a1.79,1.79,0,0,1,1,3.05l-7.08,6.9L83,66.53a1.79,1.79,0,0,1-1.76,2.09ZM71.66,60a1.79,1.79,0,0,1,.83.21l6.37,3.35-1.22-7.1a1.79,1.79,0,0,1,.52-1.58l5.16-5-7.13-1a1.79,1.79,0,0,1-1.35-1l-3.19-6.46-3.19,6.46a1.79,1.79,0,0,1-1.35,1l-7.13,1,5.16,5a1.79,1.79,0,0,1,.52,1.58l-1.22,7.1,6.37-3.35A1.79,1.79,0,0,1,71.66,60Z"/><path class="cls-1" d="M99.36,33.08a1.79,1.79,0,0,1-.83-.21l-8.75-4.6L81,32.88A1.79,1.79,0,0,1,78.42,31l1.67-9.75L73,14.34a1.79,1.79,0,0,1,1-3.05l9.79-1.42L88.17,1a1.79,1.79,0,0,1,3.21,0l4.38,8.87,9.79,1.42a1.79,1.79,0,0,1,1,3.05l-7.08,6.9L101.13,31a1.79,1.79,0,0,1-1.76,2.09Zm-9.59-8.62a1.79,1.79,0,0,1,.83.21L97,28l-1.22-7.1a1.79,1.79,0,0,1,.52-1.58l5.16-5-7.13-1a1.79,1.79,0,0,1-1.35-1L89.78,5.84l-3.19,6.46a1.79,1.79,0,0,1-1.35,1l-7.13,1,5.16,5a1.79,1.79,0,0,1,.52,1.58L82.57,28l6.37-3.35A1.79,1.79,0,0,1,89.78,24.46Z"/></svg>