<svg id="圖層_1" data-name="圖層 1" xmlns="http://www.w3.org/2000/svg" viewBox="0 0 117.31 57.61"><defs><style>.cls-1{fill:#69c;}</style></defs><title>section-2-icon-4</title><path class="cls-1" d="M114.8,43l-.17-.17a1,1,0,0,1-.28-.83,112.93,112.93,0,0,0,0-26.35,1,1,0,0,1,.28-.83,8.73,8.73,0,0,0,1-11.35,8.57,8.57,0,0,0-12.93-.94l-.34.34a1,1,0,0,1-.77.29,381.38,381.38,0,0,0-51.2,0,1,1,0,0,1-.77-.29l-.17-.17a8.71,8.71,0,0,0-11.88-.56,8.5,8.5,0,0,0-2.92,6.17,8.6,8.6,0,0,0,2.51,6.34l.17.17a1,1,0,0,1,.28.83A112.93,112.93,0,0,0,37.6,42a1,1,0,0,1-.28.83,8.71,8.71,0,0,0-.56,11.88,8.5,8.5,0,0,0,6.17,2.92h.27a8.6,8.6,0,0,0,6.06-2.51l.34-.34a1,1,0,0,1,.77-.29,381.39,381.39,0,0,0,51.2,0,1,1,0,0,1,.77.29l.17.17a8.71,8.71,0,0,0,11.88.56,8.5,8.5,0,0,0,2.92-6.17A8.6,8.6,0,0,0,114.8,43ZM112.25,53a5.46,5.46,0,0,1-7.44-.41l-.17-.17a4.24,4.24,0,0,0-3.28-1.23,377.92,377.92,0,0,1-50.76,0,4.24,4.24,0,0,0-3.28,1.23L47,52.8a5.33,5.33,0,0,1-7.78-.26,5.46,5.46,0,0,1,.41-7.44,4.22,4.22,0,0,0,1.21-3.5,109.7,109.7,0,0,1,0-25.59,4.22,4.22,0,0,0-1.21-3.5l-.17-.17a5.33,5.33,0,0,1,.26-7.78,5.16,5.16,0,0,1,3.42-1.27,5.69,5.69,0,0,1,4,1.68l.17.17a4.25,4.25,0,0,0,3.28,1.23,377.93,377.93,0,0,1,50.76,0,4.23,4.23,0,0,0,3.28-1.23L105,4.8a5.33,5.33,0,0,1,8,.59,5.47,5.47,0,0,1-.68,7.11,4.22,4.22,0,0,0-1.21,3.5,109.7,109.7,0,0,1,0,25.59,4.22,4.22,0,0,0,1.21,3.5l.17.17a5.33,5.33,0,0,1-.26,7.78Z"/><path class="cls-1" d="M100.2,13.71a1.62,1.62,0,0,0-1.18,2,53,53,0,0,1,0,26.24,1.62,1.62,0,1,0,3.15.79,56.22,56.22,0,0,0,0-27.83A1.62,1.62,0,0,0,100.2,13.71Z"/><path class="cls-1" d="M53.93,37.89a3.52,3.52,0,0,1-2.53.74A3.64,3.64,0,0,1,48.28,37a13.88,13.88,0,0,1-1.42-2.47,5.33,5.33,0,0,0-5.41-3.3c-3.38,0-5,2.82-5.76,4.2l0,0c-1.37,2.43-1.86,3.13-4.17,3.13A3.64,3.64,0,0,1,28.38,37,13.81,13.81,0,0,1,27,34.57a5.32,5.32,0,0,0-5.41-3.3c-3.06,0-4.7,2.26-5.78,4.23-1.37,2.43-1.86,3.13-4.17,3.13a3.54,3.54,0,0,1-2.82-1.23,1,1,0,0,0-.33-.24L8.38,37A13.88,13.88,0,0,1,7,34.58a5.33,5.33,0,0,0-5.41-3.3L1,31.3c-.57.05-1,.76-1,1.58s.51,1.43,1.1,1.39l.45,0c2.27,0,3.12.81,3.71,2a16.3,16.3,0,0,0,1.74,3,1,1,0,0,0,.38.3,1.33,1.33,0,0,0,.15.2,5.21,5.21,0,0,0,4.07,1.84c3.24,0,4.26-1.53,5.79-4.24.89-1.62,2-3.11,4.16-3.11s3.12.81,3.71,2a16.24,16.24,0,0,0,1.75,3A5.36,5.36,0,0,0,31.5,41.6c3.23,0,4.25-1.52,5.77-4.21v0c.89-1.58,1.94-3.12,4.17-3.12s3.12.81,3.71,2a16.3,16.3,0,0,0,1.75,3A5.37,5.37,0,0,0,51.4,41.6,5,5,0,0,0,55,40.41a1.9,1.9,0,0,0,.33-2C55.05,37.66,54.42,37.45,53.93,37.89Z"/><path class="cls-1" d="M53.93,22.63a3.52,3.52,0,0,1-2.53.74,3.64,3.64,0,0,1-3.12-1.59,13.88,13.88,0,0,1-1.42-2.47A5.33,5.33,0,0,0,41.45,16c-3.38,0-5,2.82-5.76,4.2l0,0c-1.37,2.43-1.86,3.13-4.17,3.13a3.64,3.64,0,0,1-3.12-1.59A13.81,13.81,0,0,1,27,19.31,5.32,5.32,0,0,0,21.55,16c-3.06,0-4.7,2.26-5.78,4.23-1.37,2.43-1.86,3.13-4.17,3.13a3.54,3.54,0,0,1-2.82-1.23,1,1,0,0,0-.33-.24l-.07-.11A13.88,13.88,0,0,1,7,19.31,5.33,5.33,0,0,0,1.55,16L1,16c-.57.05-1,.76-1,1.58S.52,19,1.1,19l.45,0c2.27,0,3.12.81,3.71,2A16.3,16.3,0,0,0,7,24a1,1,0,0,0,.38.3,1.33,1.33,0,0,0,.15.2,5.21,5.21,0,0,0,4.07,1.84c3.24,0,4.26-1.53,5.79-4.24.89-1.62,2-3.11,4.16-3.11s3.12.81,3.71,2A16.24,16.24,0,0,0,27,24a5.36,5.36,0,0,0,4.49,2.33c3.23,0,4.25-1.52,5.77-4.21v0c.89-1.58,1.94-3.12,4.17-3.12s3.12.81,3.71,2a16.3,16.3,0,0,0,1.75,3,5.37,5.37,0,0,0,4.49,2.33A5,5,0,0,0,55,25.14a1.9,1.9,0,0,0,.33-2C55.05,22.4,54.42,22.19,53.93,22.63Z"/></svg>