<svg id="圖層_1" data-name="圖層 1" xmlns="http://www.w3.org/2000/svg" viewBox="0 0 66.37 74.59"><defs><style>.cls-1{fill:#69c;}</style></defs><title>section-2-icon-8</title><path class="cls-1" d="M44.68,52.41h-23a3.59,3.59,0,0,1-3.59-3.59v-19a3.59,3.59,0,0,1,3.59-3.59h23a3.59,3.59,0,0,1,3.59,3.59v19A3.59,3.59,0,0,1,44.68,52.41Zm-23-24a1.39,1.39,0,0,0-1.39,1.39v19a1.39,1.39,0,0,0,1.39,1.39h23a1.39,1.39,0,0,0,1.39-1.39v-19a1.39,1.39,0,0,0-1.39-1.39Z"/><path class="cls-1" d="M44.68,52.66h-23a3.84,3.84,0,0,1-3.84-3.84v-19A3.84,3.84,0,0,1,21.73,26h23a3.84,3.84,0,0,1,3.84,3.84v19A3.84,3.84,0,0,1,44.68,52.66Zm-23-26.16a3.34,3.34,0,0,0-3.34,3.34v19a3.34,3.34,0,0,0,3.34,3.34h23A3.34,3.34,0,0,0,48,48.82v-19a3.34,3.34,0,0,0-3.34-3.34Zm23,24h-23a1.64,1.64,0,0,1-1.64-1.64v-19a1.64,1.64,0,0,1,1.64-1.64h23a1.64,1.64,0,0,1,1.64,1.64v19A1.64,1.64,0,0,1,44.68,50.46Zm-23-21.76a1.14,1.14,0,0,0-1.14,1.14v19A1.14,1.14,0,0,0,21.73,50h23a1.14,1.14,0,0,0,1.14-1.14v-19a1.14,1.14,0,0,0-1.14-1.14Z"/><path class="cls-1" d="M33.19,49.33A5.79,5.79,0,0,1,32,49.21a5.57,5.57,0,0,1-2.58-9.56.83.83,0,0,0,.29-.58V32.79a3.47,3.47,0,0,1,3.66-3.47,3.55,3.55,0,0,1,3.29,3.6V39a1.06,1.06,0,0,0,.36.73,5.57,5.57,0,0,1-3.84,9.62Zm0-17.82a1.28,1.28,0,0,0-1.28,1.28v6.28a3,3,0,0,1-1,2.2,3.39,3.39,0,0,0-1,3.22,3.38,3.38,0,1,0,5.62-3.18,3.2,3.2,0,0,1-1-2.33V32.93a1.37,1.37,0,0,0-1.21-1.41Z"/><path class="cls-1" d="M33.19,49.58A6.1,6.1,0,0,1,32,49.46a5.83,5.83,0,0,1-2.7-10,.59.59,0,0,0,.21-.4V32.79a3.73,3.73,0,0,1,3.92-3.72,3.8,3.8,0,0,1,3.53,3.86V39a.82.82,0,0,0,.28.55,5.82,5.82,0,0,1-.33,8.75A5.86,5.86,0,0,1,33.19,49.58Zm0-20a3.2,3.2,0,0,0-2.22.89,3.24,3.24,0,0,0-1,2.34v6.28a1.06,1.06,0,0,1-.37.76A5.33,5.33,0,0,0,32.06,49a5.42,5.42,0,0,0,4.5-1.07,5.32,5.32,0,0,0,.3-8,1.31,1.31,0,0,1-.44-.91V32.93a3.3,3.3,0,0,0-3.05-3.36Zm0,17.82a4,4,0,0,1-.8-.08,3.61,3.61,0,0,1-2.75-2.76,3.64,3.64,0,0,1,1.1-3.45,2.72,2.72,0,0,0,.92-2V32.79a1.53,1.53,0,0,1,1.53-1.53h.08a1.62,1.62,0,0,1,1.45,1.66V39a3,3,0,0,0,1,2.15,3.63,3.63,0,0,1-2.49,6.26Zm0-15.62a1,1,0,0,0-1,1v6.28a3.22,3.22,0,0,1-1.09,2.39,3.14,3.14,0,0,0-.94,3,3.13,3.13,0,1,0,5.21-2.95A3.45,3.45,0,0,1,34.23,39V32.93a1.12,1.12,0,0,0-1-1.16Z"/><path class="cls-1" d="M43.62,28.45h-4.3a1.1,1.1,0,0,1-1.1-1.1V20a5,5,0,1,0-10,0v7.35a1.1,1.1,0,0,1-1.1,1.1h-4.3a1.1,1.1,0,0,1-1.1-1.1V20A11.53,11.53,0,0,1,33.2,8.43a1.1,1.1,0,0,1,0,2.2A9.33,9.33,0,0,0,23.88,20v6.29H26V20a7.22,7.22,0,1,1,14.43,0v6.25h2.1V23.7a1.1,1.1,0,1,1,2.2,0v3.65A1.1,1.1,0,0,1,43.62,28.45Z"/><path class="cls-1" d="M43.62,28.7h-4.3A1.35,1.35,0,0,1,38,27.35V20a4.77,4.77,0,1,0-9.54,0v7.35a1.35,1.35,0,0,1-1.35,1.35h-4.3a1.35,1.35,0,0,1-1.35-1.35V20A11.78,11.78,0,0,1,33.2,8.18a1.35,1.35,0,1,1,0,2.7A9.08,9.08,0,0,0,24.13,20v6h1.6V20a7.47,7.47,0,1,1,14.93,0v6h1.6V23.7a1.35,1.35,0,0,1,2.7,0v3.65A1.35,1.35,0,0,1,43.62,28.7Zm-10.42-14A5.27,5.27,0,0,1,38.47,20v7.35a.85.85,0,0,0,.85.85h4.3a.85.85,0,0,0,.85-.85V23.7a.85.85,0,0,0-1.7,0v2.8h-2.6V20a7,7,0,1,0-13.93,0v6.5h-2.6V20a9.58,9.58,0,0,1,9.57-9.57.85.85,0,1,0,0-1.7A11.28,11.28,0,0,0,21.93,20v7.39a.85.85,0,0,0,.85.85h4.3a.85.85,0,0,0,.85-.85V20A5.27,5.27,0,0,1,33.2,14.73Z"/><path class="cls-1" d="M43.62,24.8a1.1,1.1,0,0,1-1.1-1.1V21.5a1.1,1.1,0,1,1,2.2,0v2.2A1.1,1.1,0,0,1,43.62,24.8Z"/><path class="cls-1" d="M43.62,25a1.35,1.35,0,0,1-1.35-1.35V21.5a1.35,1.35,0,0,1,2.7,0v2.2A1.35,1.35,0,0,1,43.62,25Zm0-4.4a.85.85,0,0,0-.85.85v2.2a.85.85,0,1,0,1.7,0V21.5A.85.85,0,0,0,43.62,20.65Z"/><path class="cls-1" d="M43,17.43a1.1,1.1,0,0,1-1-.72,9.36,9.36,0,0,0-2.64-3.81,1.1,1.1,0,0,1,1.44-1.66A11.57,11.57,0,0,1,44,15.95a1.1,1.1,0,0,1-1,1.48Z"/><path class="cls-1" d="M43,17.68a1.35,1.35,0,0,1-1.26-.88,9.1,9.1,0,0,0-2.57-3.71A1.35,1.35,0,0,1,39,11.19a1.34,1.34,0,0,1,.92-.46,1.32,1.32,0,0,1,1,.33,11.83,11.83,0,0,1,3.33,4.81A1.35,1.35,0,0,1,43,17.68Zm-3-6.46H40a.84.84,0,0,0-.58.29.85.85,0,0,0,.08,1.2,9.61,9.61,0,0,1,2.71,3.91.86.86,0,0,0,1.09.5.85.85,0,0,0,.5-1.09,11.32,11.32,0,0,0-3.19-4.6A.84.84,0,0,0,40,11.22Z"/><path class="cls-1" d="M35.39,10.86l-.23,0a9.35,9.35,0,0,0-2-.21,1.1,1.1,0,1,1,0-2.2,11.57,11.57,0,0,1,2.42.25,1.1,1.1,0,0,1-.23,2.18Z"/><path class="cls-1" d="M35.39,11.11a1.32,1.32,0,0,1-.28,0,9.13,9.13,0,0,0-1.9-.2,1.35,1.35,0,0,1,0-2.7,11.76,11.76,0,0,1,2.47.26,1.35,1.35,0,0,1,1,1.6A1.35,1.35,0,0,1,35.39,11.11ZM33.2,8.68a.85.85,0,0,0,0,1.7,9.59,9.59,0,0,1,2,.21.87.87,0,0,0,1-.65.85.85,0,0,0-.65-1A11.34,11.34,0,0,0,33.2,8.68Z"/><path class="cls-1" d="M33.2,74.34a1.1,1.1,0,0,1-.58-.17A66.48,66.48,0,0,1,7,45.89a1.1,1.1,0,1,1,2-.94,64.2,64.2,0,0,0,24.22,27c33-20.9,31.06-56.26,30.51-62A257.79,257.79,0,0,1,33.2,2.5,256.11,256.11,0,0,1,1.87,10.12a1.1,1.1,0,1,1-.36-2.17A253.41,253.41,0,0,0,32.87.3a1.09,1.09,0,0,1,.67,0A253.44,253.44,0,0,0,64.9,7.95a1.1,1.1,0,0,1,.91.93c.06.42,5.58,42-32,65.3A1.1,1.1,0,0,1,33.2,74.34Z"/><path class="cls-1" d="M33.2,74.59a1.35,1.35,0,0,1-.71-.2A66.72,66.72,0,0,1,6.77,46a1.35,1.35,0,1,1,2.44-1.15,63.93,63.93,0,0,0,24,26.81C65.34,51.18,64.13,17.3,63.48,10.19A257.38,257.38,0,0,1,33.2,2.77a258.67,258.67,0,0,1-31.29,7.6A1.36,1.36,0,0,1,.36,9.25,1.35,1.35,0,0,1,1.47,7.7,251.77,251.77,0,0,0,32.79.06a1.34,1.34,0,0,1,.82,0A251.82,251.82,0,0,0,64.94,7.7a1.35,1.35,0,0,1,1.12,1.14c.06.42,5.56,42.14-32.14,65.55A1.35,1.35,0,0,1,33.2,74.59ZM8,44.57a.85.85,0,0,0-.77,1.21A66.25,66.25,0,0,0,32.75,74a.86.86,0,0,0,.9,0c37.42-23.24,32-64.64,31.91-65.05a.85.85,0,0,0-.7-.72A252.65,252.65,0,0,1,33.46.54a.83.83,0,0,0-.51,0A252.5,252.5,0,0,1,1.55,8.19.85.85,0,0,0,1,8.54a.85.85,0,0,0,.83,1.33,257.64,257.64,0,0,0,31.3-7.6l.08,0,.08,0A256.64,256.64,0,0,0,63.76,9.73l.19,0L64,10c.64,6.74,2.18,41.41-30.63,62.21l-.13.08-.13-.08A64.45,64.45,0,0,1,8.76,45.05.85.85,0,0,0,8,44.57Z"/><path class="cls-1" d="M1.48,12.32a1.11,1.11,0,0,1-1.1-1.17C.48,9.71.59,8.91.6,8.88a1.1,1.1,0,0,1,2.18.31s-.11.77-.2,2.1A1.1,1.1,0,0,1,1.48,12.32Z"/><path class="cls-1" d="M1.48,12.57h0a1.44,1.44,0,0,1-1-.48,1.31,1.31,0,0,1-.32-1C.23,9.7.35,8.87.35,8.84a1.34,1.34,0,0,1,.53-.89,1.3,1.3,0,0,1,1-.25A1.35,1.35,0,0,1,3,9.23s-.11.76-.2,2.08A1.35,1.35,0,0,1,1.48,12.57Zm.2-4.39a.83.83,0,0,0-.5.17.85.85,0,0,0-.34.56s-.12.84-.21,2.25a.82.82,0,0,0,.2.6,1,1,0,0,0,.66.31.85.85,0,0,0,.84-.79c.09-1.34.2-2.11.2-2.12a.85.85,0,0,0-.72-1Z"/><path class="cls-1" d="M5.36,40.12a1.1,1.1,0,0,1-1-.74c-.52-1.49-1-3-1.43-4.56A1.1,1.1,0,1,1,5,34.23c.41,1.49.88,3,1.38,4.42a1.1,1.1,0,0,1-1,1.46ZM2.85,31a1.1,1.1,0,0,1-1.08-.88C1.46,28.63,1.19,27,1,25.46a1.1,1.1,0,0,1,2.18-.3c.21,1.53.48,3.07.79,4.57A1.1,1.1,0,0,1,3.08,31ZM1.55,21.73a1.1,1.1,0,0,1-1.1-1c-.12-1.6-.19-3.21-.2-4.78a1.1,1.1,0,0,1,1.09-1.11,1.07,1.07,0,0,1,1.11,1.09c0,1.52.08,3.08.2,4.63a1.1,1.1,0,0,1-1,1.18Z"/><path class="cls-1" d="M5.36,40.37a1.35,1.35,0,0,1-1.27-.9c-.52-1.48-1-3-1.43-4.58a1.35,1.35,0,0,1,2.6-.72c.41,1.49.87,3,1.38,4.41a1.35,1.35,0,0,1-.83,1.72A1.37,1.37,0,0,1,5.36,40.37ZM4,33.68a.85.85,0,0,0-.82,1.08c.43,1.54.91,3.08,1.42,4.55a.85.85,0,0,0,1.08.52.85.85,0,0,0,.52-1.08c-.51-1.45-1-2.94-1.39-4.44A.85.85,0,0,0,4,33.68ZM2.85,31.3a1.35,1.35,0,0,1-1.32-1.08C1.21,28.68.94,27.09.72,25.5A1.35,1.35,0,0,1,1.87,24a1.33,1.33,0,0,1,1,.25,1.35,1.35,0,0,1,.53.9c.21,1.53.48,3.06.79,4.55a1.35,1.35,0,0,1-1,1.6Zm-.79-6.84H1.94a.85.85,0,0,0-.73,1c.22,1.58.5,3.16.81,4.69a.88.88,0,0,0,1,.66.85.85,0,0,0,.66-1c-.31-1.5-.58-3-.79-4.59a.85.85,0,0,0-.33-.57A.83.83,0,0,0,2.06,24.46ZM1.55,22A1.35,1.35,0,0,1,.2,20.73C.08,19.12,0,17.51,0,15.93a1.35,1.35,0,0,1,1.34-1.36,1.3,1.3,0,0,1,.93.34,1.39,1.39,0,0,1,.43,1c0,1.52.08,3.07.2,4.62A1.35,1.35,0,0,1,1.65,22ZM1.4,15.07h0a.85.85,0,0,0-.85.86c0,1.57.08,3.17.2,4.76a.85.85,0,0,0,.85.79h.07a.85.85,0,0,0,.78-.91c-.12-1.56-.18-3.12-.2-4.65a.88.88,0,0,0-.27-.63A.76.76,0,0,0,1.4,15.07Z"/><path class="cls-1" d="M8,46.52a1.1,1.1,0,0,1-1-.63q-.48-1-.92-2a1.1,1.1,0,1,1,2-.87q.42,1,.89,2a1.1,1.1,0,0,1-1,1.57Z"/><path class="cls-1" d="M8,46.77A1.35,1.35,0,0,1,6.77,46q-.48-1-.93-2a1.35,1.35,0,1,1,2.48-1.07q.42,1,.89,2A1.35,1.35,0,0,1,8,46.77Zm-.91-4.2a.85.85,0,0,0-.78,1.19q.44,1,.92,2a.87.87,0,0,0,1.13.41.85.85,0,0,0,.41-1.13q-.47-1-.9-2A.85.85,0,0,0,7.08,42.56Z"/></svg>