<svg id="圖層_1" data-name="圖層 1" xmlns="http://www.w3.org/2000/svg" viewBox="0 0 72.22 75.48"><defs><style>.cls-1{fill:#69c;}</style></defs><title>section-2-icon-3</title><path class="cls-1" d="M36.11,69.38a7.83,7.83,0,1,1,7.83-7.83A7.83,7.83,0,0,1,36.11,69.38Zm0-13.33a5.5,5.5,0,1,0,5.5,5.5A5.51,5.51,0,0,0,36.11,56.05Z"/><path class="cls-1" d="M36.08,75.47a14.25,14.25,0,0,1-1.55-.09A13.91,13.91,0,0,1,27,51a3.61,3.61,0,0,0,1.24-2.75V7.82a7.83,7.83,0,0,1,15.65,0V48.26A3.57,3.57,0,0,0,45.15,51a13.91,13.91,0,0,1-9.07,24.49Zm0-73.15a5.51,5.51,0,0,0-5.5,5.5V48.26a5.94,5.94,0,0,1-2.05,4.51,11.47,11.47,0,0,0-4,10A11.6,11.6,0,1,0,43.64,52.75a5.89,5.89,0,0,1-2-4.5V7.82A5.51,5.51,0,0,0,36.11,2.32Z"/><path class="cls-1" d="M36.11,56.05a1.16,1.16,0,0,1-1.16-1.16V13.83a1.16,1.16,0,0,1,2.32,0V54.89A1.16,1.16,0,0,1,36.11,56.05Z"/><path class="cls-1" d="M42.78,43.63H39.21a1.16,1.16,0,0,1,0-2.32h3.57a1.16,1.16,0,0,1,0,2.32Z"/><path class="cls-1" d="M42.78,38.33H40.34a1.16,1.16,0,0,1,0-2.32h2.43a1.16,1.16,0,0,1,0,2.32Z"/><path class="cls-1" d="M42.78,33H39.21a1.16,1.16,0,0,1,0-2.32h3.57a1.16,1.16,0,0,1,0,2.32Z"/><path class="cls-1" d="M42.78,27.75H40.34a1.16,1.16,0,0,1,0-2.32h2.43a1.16,1.16,0,0,1,0,2.32Z"/><path class="cls-1" d="M42.78,22.46H39.21a1.16,1.16,0,0,1,0-2.32h3.57a1.16,1.16,0,0,1,0,2.32Z"/><path class="cls-1" d="M42.78,17.16H40.34a1.16,1.16,0,0,1,0-2.32h2.43a1.16,1.16,0,0,1,0,2.32Z"/><path class="cls-1" d="M42.78,11.87H39.21a1.16,1.16,0,0,1,0-2.32h3.57a1.16,1.16,0,0,1,0,2.32Z"/><path class="cls-1" d="M49.93,48.85a1.16,1.16,0,0,1-1.16-1.16V13.83a1.16,1.16,0,1,1,2.32,0V47.69A1.16,1.16,0,0,1,49.93,48.85Z"/><path class="cls-1" d="M21,75.48H1.16a1.16,1.16,0,0,1,0-2.32H21a1.16,1.16,0,0,1,0,2.32Z"/><path class="cls-1" d="M71.06,75.48H51.22a1.16,1.16,0,0,1,0-2.32H71.06a1.16,1.16,0,0,1,0,2.32Z"/></svg>